<svg xmlns="http://www.w3.org/2000/svg" viewBox="0 0 221.54 133.27">
  <defs>
    <style>
      .cls-1 {
        fill: #f2f2f2;
      }

      .cls-2 {
        fill: #fff;
      }
    </style>
  </defs>
  <title>aitken-audio-logo-2</title>
  <g id="Layer_2" data-name="Layer 2">
    <g id="Layer_1-2" data-name="Layer 1">
      <g>
        <g>
          <path class="cls-1" d="M38,16.26l-.2.46c-2,1.73-3,5.36-3,10.87q.24,25.48.49,51c0,5.84.74,9.12,2.1,9.88A7.27,7.27,0,0,1,39,89.6c-6.3.21-9.45.33-15.73.58l.06-.61A2.35,2.35,0,0,0,24.78,89c1.14-1.16,1.89-3.27,2.06-6.13.14-2.33.05-4.86.21-7.06.05-.75.17-2,.21-3.51q-.17-14.3-.35-28.59c-.38.12-1.28.35-2.6.75-1.75.54-3.08,1-3.92,1.32-4.75,1.65-7.37,3.26-8,4.61a27.92,27.92,0,0,1,2.25-7c1.2,0,4.6-1.13,10.31-3.14,1.45-.51,2.14-2.28,2.08-5.34,0-.48,0-1.16,0-2s-.1-1.38-.11-1.68c-.06-2.88-.41-4.67-1-5.37-6,2.82-10.85,10-14.82,20C7.58,54.62,5.85,62.14,5.9,69.21,6,77.7,8.65,85.62,14.16,94.72c0,.05.18.54.53,1.46A37.65,37.65,0,0,1,7,87.68a38.23,38.23,0,0,1-5.22-9.55A40.38,40.38,0,0,1,.66,72.23,55.62,55.62,0,0,1,0,66.06,51.61,51.61,0,0,1,1.69,52.19c.27-1,1.57-4.14,3.8-9.59,2.13-5.22,3.17-8.1,3.17-8.26,0-1.88-1.09-2.41-3.18-1.52l-.07-.57A201.57,201.57,0,0,1,38,16.26Z"/>
          <path class="cls-1" d="M56.32,10.21a15.08,15.08,0,0,0-1.72,1.92,5.92,5.92,0,0,0-1.12,2.46,61.61,61.61,0,0,0-.81,9.56q.55,29.54,1.11,59.07a6.4,6.4,0,0,0,1.09,3.64,7.75,7.75,0,0,0,2.44,2.52c-6.29.15-9.43.23-15.7.43l1.48-1.3c1.36-1.27,2-3.81,2-7.57-.2-16.78-.46-33.6-.61-50.4a69.51,69.51,0,0,0-1.23-12.09A3,3,0,0,0,42,16.64c-1.08-.79-1.64-1.19-1.69-1.24A168.52,168.52,0,0,1,56.32,10.21Z"/>
          <path class="cls-1" d="M98.29,24.17a3.18,3.18,0,0,0-.68-1.35,5.76,5.76,0,0,1-.68-1c-.25-.79-.71-1.95-1.37-3.45-3.93-7.25-8-10.56-12.05-10-.55.07-1,1.58-1.29,4.52q-.33,3.2-.37,5.59.21,24.67.42,49.35a161.59,161.59,0,0,0,.8,17.12,3.26,3.26,0,0,0,1.4,2.15c.67.5,1.36,1,2,1.5-6.53.07-9.8.12-16.32.24Q74,87,74,79.23q-.14-22-.28-43.9A5.82,5.82,0,0,1,74,34a6,6,0,0,0,.23-1.48q0-1.07-.37-.38c-.05-.28-.2-2.77-.42-7.43-.17-3.61-.42-5.82-.78-6.62a16.73,16.73,0,0,0-2-2.75l.59-.11a7.7,7.7,0,0,0,3.31-1.75c1-.84,2.08-1.77,3.16-2.66l0-1.29a3.22,3.22,0,0,0-1.64-.06C68,10.78,62.19,17.56,58.62,28.7c.63-4.74,1.32-11.86,2.06-21.42l.57-.88A2.35,2.35,0,0,0,62.91,8a4.45,4.45,0,0,0,2.45.21A170.07,170.07,0,0,1,88.49,4.35c.25,0,.5-.24.74-.63a9.51,9.51,0,0,1,2.1-.32q1.5-.14,3.58-3.4.64,5.46,1.3,14v-.11l.15.65.54,2.51C97.46,19.91,97.74,21.33,98.29,24.17Z"/>
          <path class="cls-1" d="M142.26,62.21c.77,11.92-4.82,25.21-14,34.3,4-8.72,8.55-17.78,8.69-27.63.09-6.15-2.12-13.28-6.7-21.32-4.68-8.22-9.2-12.45-13.38-12.54A3.55,3.55,0,0,0,114,36.48a5.79,5.79,0,0,0-1.23,3.82l0,29.94q-.09,12.31,1,15.19a4,4,0,0,0,1.52,1.89q1,.67,1.08,1.22c-6.39,0-9.58,0-16,0v-.88a8.33,8.33,0,0,0,3.67-4.89,51.8,51.8,0,0,0,.41-7.76l-.19-63.25c0-2.44-.29-4.21-.88-5-.72-.91-1.73-1.85-2.6-2.77l.15-.67c6.41-.31,9.62-.34,16-.14V4.45c-2.56.59-3.84,4.36-3.85,11.23,0,.3,0,2.29,0,5.88,0,2.34,0,4.29,0,5.76q.52.67.89.68c1.88,0,4.57-2.5,8.07-7.45s5.29-8.69,5.31-11.38a3.46,3.46,0,0,0-1-2.75,21.76,21.76,0,0,0-2.05-1.62V3.58c6.31.29,9.47.55,15.74,1.33a25.35,25.35,0,0,0-6.51,6.83c-1.94,2.77-3.87,5.74-5.83,8.61A57.14,57.14,0,0,0,122,27.54q2.16.09,5.29,2.92c2.09,1.89,3.42,2.93,4,3.12a64.86,64.86,0,0,1,5.6,8,33.93,33.93,0,0,1,3.84,10A67.39,67.39,0,0,1,142.26,62.21Z"/>
          <path class="cls-1" d="M182.81,14.53c-.41,3.11-2,7.15-4.92,12.5l-.43-.13a14.35,14.35,0,0,0-2.76-7.77,11,11,0,0,0-5.77-4.4c-2.08-.6-4.16.09-6.21,2a19,19,0,0,0-4.37,6.73,36.87,36.87,0,0,0-1.75,4.72,1.89,1.89,0,0,0,.42,1.33c6.53,1.17,9.78,1.87,16.23,3.46A60.13,60.13,0,0,1,169,39.57c-.29-2-1.84-3.33-4.66-3.88a13,13,0,0,0-1.42-.17c-.61,0-1.06-.09-1.35-.15-3.31-.61-5.14-.76-5.49-.53-1.09.45-1.62,2.63-1.73,6.37-.31,9.82,1.58,21.87,5.44,31,4.1,9.7,9.65,16.11,16.83,19.06l.42.69c-5.32-.23-10.52-2.66-15.62-7.58A49.34,49.34,0,0,1,150,66.47c-.27-1.08-.71-2.67-1.3-4.78a33.66,33.66,0,0,1-1.54-4.29A99.71,99.71,0,0,1,145,34c.06-3.72,1.13-8.58,3.22-14.41s3.15-8.49,3.14-8.14a3.49,3.49,0,0,0-1.25-2.75,4.42,4.42,0,0,0-2.47-1.26l0-1.39a303.51,303.51,0,0,1,32.6,8.87A3.28,3.28,0,0,0,182.81,14.53Z"/>
          <path class="cls-1" d="M221.54,36.46c-2.18-1-3.3-.29-3.31,1.95l-.14,28.31a45.28,45.28,0,0,1-2.41,14.58c-1.84,5.42-4.46,9.69-7.86,12.7,4.38-7.42,6.53-14.43,6.6-22.17.06-6.15-1.89-12.45-5.69-19.58a64.91,64.91,0,0,0-13.4-17.65,24.21,24.21,0,0,1-2.08-2c-.75-.28-1.15,2-1.29,6.73-.1,3.22-.36,9.79-.66,19.6-.25,8.19-.41,14.79-.52,19.75a25.94,25.94,0,0,0,.75,8.21,3.85,3.85,0,0,0,1.3,1.42c.68.51,1,.91,1.09,1.21l-9.84-.38A6.88,6.88,0,0,1,185.6,88a3.06,3.06,0,0,0,1.41-1.7c.47-1.7.82-5.43,1-11.11.11-3.91.18-7.86.28-11.79q.55-16.06,1.11-32.12A4,4,0,0,0,187.66,28a7.42,7.42,0,0,0-3-1.42c4.21-6.09,6.77-8.49,7.75-8q-.07,0,1.38,1.44A112,112,0,0,1,214.57,48.9l.68.29.09-10.8a10.1,10.1,0,0,0-.54-3.81A17.48,17.48,0,0,0,212.52,31l.14-.55c3.46,2,5.17,3.05,8.55,5.24Z"/>
        </g>
        <g>
          <path class="cls-2" d="M23.56,133.27H21.95l-.64-4.08H17.66L17,133.27H15.44v0l3.27-18.34h1.61Zm-2.47-5.52-1.61-9.94-1.62,9.94Z"/>
          <path class="cls-2" d="M71.29,132a1.26,1.26,0,0,1-.37.94,1.29,1.29,0,0,1-.94.36H65a1.24,1.24,0,0,1-1.3-1.3v-17h1.63v16.9h4.35v-16.9h1.63Z"/>
          <path class="cls-2" d="M119.7,130a3.19,3.19,0,0,1-1,2.38,3.31,3.31,0,0,1-2.41.93h-4.2V114.93h4.2a3.3,3.3,0,0,1,2.41.93,3.2,3.2,0,0,1,.95,2.38Zm-1.63-.16v-11.4a2,2,0,0,0-.57-1.46,2,2,0,0,0-1.47-.56h-2.26v15.46h2.17a2.19,2.19,0,0,0,1.54-.54A1.93,1.93,0,0,0,118.07,129.79Z"/>
          <path class="cls-2" d="M162.2,133.27h-1.63V114.93h1.63Z"/>
          <path class="cls-2" d="M210.93,132a1.26,1.26,0,0,1-.37.94,1.29,1.29,0,0,1-.94.36h-5.13a1.24,1.24,0,0,1-1.3-1.3V116.23a1.24,1.24,0,0,1,1.3-1.3h5.13a1.29,1.29,0,0,1,.94.36,1.26,1.26,0,0,1,.37.94Zm-1.63-.14V116.37h-4.49v15.46Z"/>
        </g>
      </g>
    </g>
  </g>
</svg>
