<svg xmlns="http://www.w3.org/2000/svg" viewBox="0 0 443.48 300.04"><defs><style>.cls-1{fill:#222222;}.cls-2{fill:none;stroke:#f2f2f2;stroke-miterlimit:10;stroke-width:2px;}.cls-3{fill:#fff;}</style></defs><title>logo-1</title><g id="Layer_2" data-name="Layer 2"><g id="Layer_1-2" data-name="Layer 1"><ellipse class="cls-1" cx="221.74" cy="150.02" rx="220.74" ry="149.02"/><path class="cls-2" d="M221.74,289.3c-57,0-110.54-14.91-150.64-42C32.18,221,10.74,186.49,10.74,150S32.18,79,71.1,52.72c40.1-27.07,93.6-42,150.64-42s110.54,14.91,150.64,42C411.3,79,432.74,113.56,432.74,150s-21.44,71-60.36,97.3C332.28,274.4,278.78,289.3,221.74,289.3Z"/><ellipse class="cls-2" cx="221.74" cy="150.02" rx="220.74" ry="149.02"/><path class="cls-3" d="M99.08,103.16l-.37.5q-5.36,1.87-5.61,12.85l-1.25,68q-.25,11.72,3.24,13.35a13.41,13.41,0,0,1,2.74,1.62H70.52l.13-.87a4.54,4.54,0,0,0,2.54-.75q3-2.37,3.81-8.48.38-5,.63-9.85a43.9,43.9,0,0,0,.5-4.86l.5-39.91q-1,0-4.61-.12H67q-12.72,0-14.34,2.62.62-3.74,4.24-9.35Q60.16,129,75.38,129q3.86,0,3.87-6.4v-2.76q-.13-1.76-.12-2.39,0-6-1.62-8-16,.5-27.19,20-9.73,17.11-9.73,34.47,0,20.86,14,42c0,.08.29.83.87,2.25q-6.24-4.11-13.22-13.84-6.61-9.35-9.1-17a73.91,73.91,0,0,1-1.93-10.48,100.56,100.56,0,0,1-1.18-11q0-13.72,3.12-22.7.75-2.37,7.11-13,6-10.22,6-10.6,0-4.49-5.86-5.36l-.12-1Z"/><path class="cls-3" d="M130.76,103.16a17.67,17.67,0,0,0-3,1.75,5.17,5.17,0,0,0-2,2.62A51.89,51.89,0,0,0,124,119l-.37,73.09a6.38,6.38,0,0,0,1.75,4.55,11.71,11.71,0,0,0,4.12,3.18H102.32l2.62-1.62q3.62-2.37,3.74-9.6,1-67,1-64.36a71.42,71.42,0,0,0-1.62-15.84,5.51,5.51,0,0,0-2.12-2.87q-2.74-2.24-2.87-2.37Z"/><path class="cls-3" d="M201,126.85a3.44,3.44,0,0,0-1.12-1.56,7.05,7.05,0,0,1-1.12-1.19,40.19,40.19,0,0,0-2.25-4q-9.73-12.72-20-12.72-1.37,0-2.25,5a51.66,51.66,0,0,0-.75,6.36l-.37,56.75q0,14.59,1,19.71.25,1.37,2.37,2.5l3.49,1.75H151.83q6.61-2,6.86-11.1l.75-51.26a4.7,4.7,0,0,1,.44-1.56,4.77,4.77,0,0,0,.44-1.68c0-.83-.21-1-.62-.5q-.13-.5-.5-8.73-.25-6.36-1.12-7.86a25.83,25.83,0,0,0-3.24-3.62h1a14.81,14.81,0,0,0,5.61-1.37q2.62-1.25,5.36-2.49v-1.5a8.08,8.08,0,0,0-2.74-.37q-20.33,0-30.06,18.83,1.87-8.35,4.24-25.19l1-.87A4.39,4.39,0,0,0,142,102.6a10.8,10.8,0,0,0,4.12.94h38.79a1.8,1.8,0,0,0,1.25-.62,23.4,23.4,0,0,1,3.49-.12q2.49,0,6-3.49,1,6.24,2,16v-.12l.25.75.87,2.87Z"/><path class="cls-3" d="M275.56,168.89q0,24.2-23.32,39.66Q266.7,190,266.7,176.87q0-10.6-11.79-23.95-12.17-13.59-22.71-13.59a7.43,7.43,0,0,0-4.83,1.68,5.3,5.3,0,0,0-2.07,4.3V179q-.13,13.84,1.75,17.09a5.59,5.59,0,0,0,2.62,2.12q1.74.75,1.87,1.37H204v-1q5.11-2.25,6.36-5.49.62-1.87.75-8.73V113.13q0-4.12-1.43-5.61l-4.3-3.24.25-.75h26.57v1.37q-6.36,1.12-6.36,12.72v6.61q.12,4,0,6.49a2.51,2.51,0,0,0,1.5.75q4.74,0,13.47-8.65t8.73-13.23a3.2,3.2,0,0,0-1.69-3,37.48,37.48,0,0,0-3.43-1.67v-1.36l26.19-.37q-4.62,2.5-10.73,8.73-4.74,5.24-9.6,10.35a90.33,90.33,0,0,0-9.6,8.48q3.62,0,8.92,3t6.8,3.24a79.77,79.77,0,0,1,9.6,8.61,31.43,31.43,0,0,1,6.73,11.1Q273.19,158.16,275.56,168.89Z"/><path class="cls-3" d="M343.28,101.29q-.88,6.36-8,18.21h-.75a12.33,12.33,0,0,0-5.05-8.76,16.27,16.27,0,0,0-10-3.33q-5.36,0-10.48,4.46a29.52,29.52,0,0,0-7.17,9.24,43,43,0,0,0-2.81,6,1.67,1.67,0,0,0,.75,1.49h27.81a81.54,81.54,0,0,1-7,9.35q-.87-3.62-8.11-3.62-.88,0-2.43.13t-2.31.13q-8.48,0-9.35.5-2.75,1.12-2.74,7.86A66,66,0,0,0,306,179.24q11,17.21,29.81,22.58l.75.87q-13.84-.25-27.31-8.86a63.23,63.23,0,0,1-20.33-20.58q-.75-1.87-2.37-5.49a31.34,31.34,0,0,1-2.74-4.86A79,79,0,0,1,279.55,136q0-6.48,5.05-17.27t5.05-10.17a3.25,3.25,0,0,0-2.18-2.93,8.37,8.37,0,0,0-4.18-.94V103h55.63A8.48,8.48,0,0,0,343.28,101.29Z"/><path class="cls-3" d="M413.75,104.53q-6.24,1.12-6.24,6.73v47.4a76.19,76.19,0,0,1-4.12,24.95q-4.74,14-13.47,21.08Q401,187.37,401,168.57q0-14.94-10.6-28.27A59,59,0,0,0,366,121.74a28.77,28.77,0,0,1-3.74-1.62q-2,0-2,9.84-.13,6.73-.37,27-.13,16.94-.12,27.15,0,7.72,1.62,11.21a6,6,0,0,0,2.31,1.87q1.81,1,1.93,1.62H348.52a10.93,10.93,0,0,1,2.62-1.62,4.6,4.6,0,0,0,2.37-2.37q1.12-3.49,1.25-15.07V163.82l.63-43.6q0-2.62-3.12-3.61a12.79,12.79,0,0,0-5.24-.5q10.6-14.82,13.22-14.82a25.29,25.29,0,0,0,2.49,1.12q24.07,9.94,38.17,29.07h1.25V113.88q0-4-1.06-5.67a13.37,13.37,0,0,0-4.3-3.68l.25-1h16.09Z"/></g></g></svg>